# xmcd
#
# Track frame offsets:
#	150
#	34281
#	70584
#	95681
#	122728
#	160086
#	182487
#	214469
#	237494
#	269235
#	287306
#	303864
#	319307
#
# Disc length: 4486 seconds
#
# Revision: 1
# Processed by: cddbd v1.5.1PL0 Copyright (c) Steve Scherf et al.
# Submitted via: audiograbber 1.83.01
#
DISCID=c011840d
DTITLE=Armada - Amsterdam Dance Event Sampler 2004
DYEAR=2004
DGENRE=Trance
TTITLE0=Markus Schulz presents Elevation - Clear Blue (Intro Mix)
TTITLE1=Origine - Sanctuary (Harry Lemon Mix)
TTITLE2=Perry O'Neil - Wave Force
TTITLE3=Markus Schulz presents Elevation - Largo
TTITLE4=Peter Martin presents Anthanasia - Perfect Wave
TTITLE5=Roland Klinkenberg - Monday Groove
TTITLE6=Elevation and Kenneth Thomas - Preen
TTITLE7=Signum - The Timelord (Spectral Balance Mix)
TTITLE8=Armin vs. M.I.K.E. - Intruder
TTITLE9=Remy and Roland Klinkenberg - Till Ya Drop!
TTITLE10=Bonus Mini-Mix by Mischa Daniels - Part 1
TTITLE11=Bonus Mini-Mix by Mischa Daniels - Part 2
TTITLE12=Bonus Mini-Mix by Mischa Daniels - Part 3
EXTD=
EXTT0=
EXTT1=
EXTT2=
EXTT3=
EXTT4=
EXTT5=
EXTT6=
EXTT7=
EXTT8=
EXTT9=
EXTT10=
EXTT11=
EXTT12=
PLAYORDER=
